<svg width="61" height="22" viewBox="0 0 61 22" fill="none" xmlns="http://www.w3.org/2000/svg">
<path d="M0.175781 21L7.54492 1.23047H9.96484L17.3477 21H14.5449L13.2051 17.1445H4.38672L3.0332 21H0.175781ZM5.04297 15.1895H12.5762L8.83008 4.375L5.04297 15.1895ZM22.899 16.9121C22.899 18.5254 24.0429 19.332 26.3306 19.332C28.6184 19.332 29.7623 18.5254 29.7623 16.9121V10.6367C29.7623 9.01432 28.6184 8.20312 26.3306 8.20312C24.0429 8.20312 22.899 9.01432 22.899 10.6367V16.9121ZM32.3326 16.6934C32.3326 18.1152 31.845 19.2409 30.8697 20.0703C29.9036 20.8906 28.386 21.3008 26.317 21.3008C24.248 21.3008 22.7304 20.8906 21.7642 20.0703C20.8072 19.25 20.3287 18.1243 20.3287 16.6934V10.8555C20.3287 9.42448 20.8072 8.29883 21.7642 7.47852C22.7304 6.64909 24.248 6.23438 26.317 6.23438C28.386 6.23438 29.9036 6.64909 30.8697 7.47852C31.845 8.30794 32.3326 9.43359 32.3326 10.8555V16.6934ZM41.3839 21.1094C40.5363 21.1094 39.8436 21.0456 39.3058 20.918C38.7681 20.7904 38.2941 20.5488 37.8839 20.1934C37.1183 19.528 36.7355 18.1654 36.7355 16.1055V0.423828H39.3058V16.1328C39.3058 17.2995 39.479 18.0605 39.8254 18.416C40.1717 18.7715 40.8872 18.9492 41.9718 18.9492H42.423L42.1222 21.1094H41.3839ZM52.6775 21.1094C50.654 21.1094 49.1912 20.7904 48.2888 20.1523C47.3956 19.5143 46.949 18.416 46.949 16.8574V8.44922H44.529V6.50781H47.0447L47.3591 2.02344H49.5193V6.50781H53.156V8.44922H49.5193V16.6934C49.5193 17.6048 49.779 18.2109 50.2986 18.5117C50.8272 18.8034 51.7432 18.9492 53.0466 18.9492H53.3337L53.0603 21.1094H52.6775ZM57.2445 21V17.6914H60.7445V21H57.2445Z" fill="#111111"/>
</svg>
