<svg width="60" height="60" viewBox="0 0 60 60" fill="none" xmlns="http://www.w3.org/2000/svg">
<g id="pie-chart 1" clip-path="url(#clip0_86_33)">
<path id="Vector" d="M49.2434 35.075L29.2703 33.6599C28.7674 33.6243 28.49 34.2322 28.8466 34.5888L44.4717 50.2139C47.8253 46.8602 50.2154 42.543 51.1913 37.7132C51.4502 36.4323 50.5436 35.2076 49.2434 35.075V35.075Z" fill="white"/>
<path id="Vector_2" d="M24.6094 35.3907L19.9935 13.5845C19.7712 12.5344 18.8443 11.8252 17.8301 11.8252C17.6105 11.8252 17.3868 11.8585 17.1653 11.9287C7.21277 15.0835 0 24.3943 0 35.3907C0 48.9821 11.018 60 24.6094 60C31.4051 60 37.5574 57.2455 42.0108 52.7921L24.6094 35.3907Z" fill="white"/>
<path id="Vector_3" d="M35.7024 0.00194587C34.6877 -0.0107104 33.6872 0.0385084 32.7041 0.145618C31.4002 0.287649 30.5036 1.52421 30.7752 2.8073L35.1406 23.4297C35.2894 24.1326 35.8751 24.6588 36.5898 24.7318L57.5759 26.8733C58.8696 27.0053 59.9951 25.9924 59.9996 24.6919L59.9997 24.6672C60.0307 11.1294 49.239 0.17093 35.7024 0.00194587V0.00194587Z" fill="white"/>
</g>
<defs>
<clipPath id="clip0_86_33">
<rect width="60" height="60" fill="white"/>
</clipPath>
</defs>
</svg>
