<svg width="60" height="60" viewBox="0 0 60 60" fill="none" xmlns="http://www.w3.org/2000/svg">
<g id="diagram 1" clip-path="url(#clip0_86_29)">
<path id="Vector" d="M58.2414 56.4844H56.3664V21.7973C56.3664 20.8266 55.5794 20.0396 54.6086 20.0396H47.5775C46.6067 20.0396 45.8197 20.8266 45.8197 21.7973V56.4844H42.3041V33.5159C42.3041 32.5452 41.5171 31.7581 40.5463 31.7581H33.5152C32.5444 31.7581 31.7574 32.5452 31.7574 33.5159V56.4844H28.2418V39.9612C28.2418 38.9904 27.4548 38.2034 26.484 38.2034H19.4529C18.4821 38.2034 17.6951 38.9904 17.6951 39.9612V56.4844H14.1795V44.1798C14.1795 43.2091 13.3925 42.4221 12.4217 42.4221H5.39055C4.41978 42.4221 3.63276 43.2091 3.63276 44.1798V56.4844H1.75779C0.78702 56.4844 0 57.2714 0 58.2422C0 59.2129 0.78702 59.9999 1.75779 59.9999H58.2414C59.2122 59.9999 59.9992 59.2129 59.9992 58.2422C59.9992 57.2714 59.2122 56.4844 58.2414 56.4844Z" fill="#0075FF"/>
<path id="Vector_2" d="M1.75779 37.7703C12.7285 37.7703 24.6254 33.8303 35.2573 26.676C43.5839 21.0728 50.5249 13.9147 54.8364 6.58506L56.5436 12.9561C56.7541 13.7415 57.7702 14.42 58.6964 14.199C59.6407 13.9737 60.1905 12.9839 59.9393 12.0462L57.0609 1.30373C56.8095 0.366121 55.8461 -0.190512 54.908 0.060852L44.1656 2.93929C43.2279 3.19054 42.6715 4.15439 42.9227 5.09211C43.1741 6.02983 44.1375 6.58647 45.0756 6.33499L51.996 4.48064C47.9736 11.4703 41.3258 18.3547 33.2945 23.7592C23.2367 30.5274 12.0367 34.2548 1.75779 34.2548C0.78702 34.2548 0 35.0418 0 36.0125C0 36.9833 0.78702 37.7703 1.75779 37.7703V37.7703Z" fill="#0075FF"/>
</g>
<defs>
<clipPath id="clip0_86_29">
<rect width="60" height="60" fill="white"/>
</clipPath>
</defs>
</svg>
